<svg data-v-fde0c5aa="" xmlns="http://www.w3.org/2000/svg" viewBox="0 0 300 300" class="font"><!----><defs data-v-fde0c5aa=""><!----></defs><rect data-v-fde0c5aa="" fill="#F1DEDA" x="0" y="0" width="300px" height="300px" class="logo-background-square"></rect><defs data-v-fde0c5aa=""><linearGradient data-v-fde0c5aa="" gradientTransform="rotate(25)" id="5c2ed175-9a2a-4e7a-bd96-5694bcbe4c70" x1="0%" y1="0%" x2="100%" y2="0%"><stop data-v-fde0c5aa="" offset="0%" stop-color="#30223A" stop-opacity="1"></stop><stop data-v-fde0c5aa="" offset="100%" stop-color="#F13800" stop-opacity="1"></stop></linearGradient></defs><g data-v-fde0c5aa="" id="d0651df0-29d1-4a93-8d5b-4a9125448345" fill="url(#5c2ed175-9a2a-4e7a-bd96-5694bcbe4c70)" transform="matrix(2.366354901207253,0,0,2.366354901207253,38.69850477612686,130.61955378789168)"><path d="M5.95 5.88Q6.99 5.88 7.57 6.50Q8.15 7.11 8.15 8.23L8.15 8.23L8.15 13.02L4.93 13.02L4.93 9.07Q4.93 8.61 4.82 8.43Q4.70 8.25 4.44 8.25L4.44 8.25Q4.09 8.25 3.93 8.51Q3.77 8.78 3.77 9.35L3.77 9.35L3.77 13.02L0.55 13.02L0.55 3.22L3.77 3.22L3.77 7.45Q4.05 6.68 4.61 6.28Q5.17 5.88 5.95 5.88L5.95 5.88ZM12.87 5.88Q14.73 5.88 15.75 6.83Q16.77 7.78 16.77 9.52L16.77 9.52Q16.77 11.26 15.75 12.21Q14.73 13.16 12.87 13.16L12.87 13.16Q11.00 13.16 9.98 12.21Q8.96 11.26 8.96 9.52L8.96 9.52Q8.96 7.78 9.98 6.83Q11.00 5.88 12.87 5.88L12.87 5.88ZM12.87 8.05Q12.59 8.05 12.45 8.18Q12.31 8.30 12.25 8.61Q12.19 8.92 12.19 9.52L12.19 9.52Q12.19 10.12 12.25 10.43Q12.31 10.74 12.45 10.86Q12.59 10.99 12.87 10.99L12.87 10.99Q13.15 10.99 13.29 10.86Q13.43 10.74 13.48 10.43Q13.54 10.12 13.54 9.52L13.54 9.52Q13.54 8.92 13.48 8.61Q13.43 8.30 13.29 8.18Q13.15 8.05 12.87 8.05L12.87 8.05ZM23.09 10.86L23.23 12.68Q22.88 12.89 22.28 13.03Q21.69 13.16 21.14 13.16L21.14 13.16Q19.63 13.16 18.89 12.58Q18.14 12.00 18.14 10.67L18.14 10.67L18.14 8.19L17.07 8.19L17.07 6.02L18.14 6.02L18.14 4.54L21.36 3.64L21.36 6.02L23.13 6.02L23.13 8.19L21.36 8.19L21.36 10.16Q21.36 10.64 21.57 10.84Q21.77 11.05 22.20 11.05L22.20 11.05Q22.72 11.05 23.09 10.86L23.09 10.86ZM32.52 5.88Q33.80 5.88 34.50 6.85Q35.21 7.81 35.21 9.56L35.21 9.56Q35.21 11.28 34.52 12.22Q33.82 13.16 32.54 13.16L32.54 13.16Q31.70 13.16 31.10 12.68Q30.51 12.21 30.24 11.38L30.24 11.38L30.16 13.02L27.33 13.02L27.33 3.22L30.55 3.22L30.55 7.20Q30.83 6.58 31.32 6.23Q31.81 5.88 32.52 5.88L32.52 5.88ZM31.23 10.91Q31.60 10.91 31.78 10.61Q31.96 10.30 31.96 9.52L31.96 9.52Q31.96 8.74 31.78 8.44Q31.60 8.15 31.23 8.15L31.23 8.15Q30.88 8.15 30.72 8.47Q30.55 8.79 30.55 9.46L30.55 9.46L30.55 9.58Q30.55 10.28 30.72 10.59Q30.90 10.91 31.23 10.91L31.23 10.91ZM43.44 9.30Q43.44 9.83 43.37 10.14L43.37 10.14L38.92 10.14Q38.99 10.65 39.21 10.84Q39.44 11.02 39.89 11.02L39.89 11.02Q40.57 11.02 40.73 10.42L40.73 10.42L43.32 11.12Q43.08 12.12 42.15 12.64Q41.22 13.16 39.89 13.16L39.89 13.16Q37.90 13.16 36.87 12.22Q35.84 11.28 35.84 9.52L35.84 9.52Q35.84 7.78 36.86 6.83Q37.87 5.88 39.72 5.88L39.72 5.88Q41.52 5.88 42.48 6.80Q43.44 7.73 43.44 9.30L43.44 9.30ZM39.73 8.01Q39.37 8.01 39.17 8.22Q38.98 8.43 38.92 8.95L38.92 8.95L40.43 8.95Q40.39 8.47 40.23 8.24Q40.07 8.01 39.73 8.01L39.73 8.01ZM51.73 11.30Q51.97 11.30 52.08 11.24L52.08 11.24L51.83 12.88Q51.35 13.16 50.79 13.16L50.79 13.16Q49.94 13.16 49.36 12.86Q48.79 12.56 48.59 11.98L48.59 11.98Q48.27 12.53 47.65 12.84Q47.03 13.16 46.10 13.16L46.10 13.16Q45.01 13.16 44.48 12.73Q43.95 12.31 43.95 11.49L43.95 11.49Q43.95 10.61 44.58 10.09Q45.21 9.56 46.68 9.24L46.68 9.24L48.06 8.93L48.06 8.65Q48.06 8.33 47.90 8.15Q47.74 7.97 47.43 7.97L47.43 7.97Q47.10 7.97 46.90 8.15Q46.70 8.34 46.69 8.82L46.69 8.82L44.03 8.41Q44.14 7.21 45.04 6.54Q45.93 5.88 47.61 5.88L47.61 5.88Q49.48 5.88 50.37 6.59Q51.25 7.31 51.25 8.76L51.25 8.76L51.25 10.72Q51.25 11.30 51.73 11.30L51.73 11.30ZM47.46 11.41Q47.73 11.41 47.89 11.23Q48.06 11.06 48.06 10.72L48.06 10.72L48.06 10.05L47.60 10.19Q47.31 10.28 47.14 10.46Q46.97 10.65 46.97 10.92L46.97 10.92Q46.97 11.16 47.11 11.28Q47.25 11.41 47.46 11.41L47.46 11.41ZM57.90 5.88Q58.94 5.88 59.52 6.50Q60.10 7.11 60.10 8.23L60.10 8.23L60.10 13.02L56.88 13.02L56.88 9.07Q56.88 8.61 56.77 8.43Q56.66 8.26 56.39 8.26L56.39 8.26Q56.04 8.26 55.88 8.53Q55.72 8.79 55.72 9.35L55.72 9.35L55.72 13.02L52.50 13.02L52.50 6.02L55.40 6.02L55.47 7.55Q55.78 6.73 56.39 6.31Q57.01 5.88 57.90 5.88L57.90 5.88ZM77.17 6.02L75.26 13.02L71.26 13.02L70.76 10.86L70.48 9.16L70.42 9.16L70.15 10.85L69.64 13.02L65.63 13.02L63.73 6.02L67.06 6.02L67.62 9.37L67.83 10.95L67.89 10.95L68.17 9.35L68.87 6.02L72.03 6.02L72.74 9.39L73.01 10.95L73.07 10.95L73.28 9.38L73.84 6.02L77.17 6.02ZM84.81 9.30Q84.81 9.83 84.74 10.14L84.74 10.14L80.29 10.14Q80.36 10.65 80.58 10.84Q80.81 11.02 81.26 11.02L81.26 11.02Q81.94 11.02 82.10 10.42L82.10 10.42L84.69 11.12Q84.45 12.12 83.52 12.64Q82.59 13.16 81.26 13.16L81.26 13.16Q79.27 13.16 78.24 12.22Q77.21 11.28 77.21 9.52L77.21 9.52Q77.21 7.78 78.23 6.83Q79.24 5.88 81.09 5.88L81.09 5.88Q82.89 5.88 83.85 6.80Q84.81 7.73 84.81 9.30L84.81 9.30ZM81.10 8.01Q80.74 8.01 80.54 8.22Q80.35 8.43 80.29 8.95L80.29 8.95L81.80 8.95Q81.76 8.47 81.60 8.24Q81.44 8.01 81.10 8.01L81.10 8.01ZM90.83 5.88Q92.11 5.88 92.81 6.85Q93.52 7.81 93.52 9.56L93.52 9.56Q93.52 11.28 92.83 12.22Q92.13 13.16 90.85 13.16L90.85 13.16Q90.01 13.16 89.41 12.68Q88.82 12.21 88.55 11.38L88.55 11.38L88.47 13.02L85.64 13.02L85.64 3.22L88.86 3.22L88.86 7.20Q89.14 6.58 89.63 6.23Q90.12 5.88 90.83 5.88L90.83 5.88ZM89.54 10.91Q89.91 10.91 90.09 10.61Q90.27 10.30 90.27 9.52L90.27 9.52Q90.27 8.74 90.09 8.44Q89.91 8.15 89.54 8.15L89.54 8.15Q89.19 8.15 89.03 8.47Q88.86 8.79 88.86 9.46L88.86 9.46L88.86 9.58Q88.86 10.28 89.03 10.59Q89.21 10.91 89.54 10.91L89.54 10.91Z"></path></g><!----><!----></svg>